# xmcd
#
# Track frame offsets:
#	150
#	13257
#	26405
#	40752
#	55070
#	72577
#	86035
#	100957
#	113797
#	128172
#	140935
#	154125
#	169035
#	182560
#	197347
#	210665
#	225835
#	241255
#	255900
#	265935
#	279552
#	293962
#	307655
#	321000
#
# Disc length: 4459 seconds
#
# Revision: 1
# Processed by: cddbd v1.4PL0 Copyright (c) Steve Scherf et al.
# Submitted via: audiograbber 1.80.04
#
DISCID=4a116918
DTITLE=Billie Holiday - That Ole Devil Called Love
DYEAR=2000
DGENRE=Blues
TTITLE0=That Ole Devil Called Love
TTITLE1=(I Love You) Porgy
TTITLE2=Baby, I Don't Cry Over You
TTITLE3=As Time Goes By
TTITLE4=All Of Me
TTITLE5=My Old Flame
TTITLE6=Fine And Mellow
TTITLE7=A Sailboat In The Moonlight
TTITLE8=Gloomy Sunday
TTITLE9=Them There Eyes
TTITLE10=Don't Explain
TTITLE11=My Sweet Hunk O'Trash
TTITLE12=There Is No Greater Love
TTITLE13=Solitude
TTITLE14=I'll Get By
TTITLE15=Yesterdays
TTITLE16=I Cover The Waterfront
TTITLE17=I'm Yours
TTITLE18=Trav'lin All Alone
TTITLE19=The Blues Are Brewin'
TTITLE20=You Can't Lose A Broken Heart
TTITLE21=On The Sunny Side Of The Street
TTITLE22=Mandy Is Two
TTITLE23=Body and Soul
EXTD=
EXTT0=
EXTT1=
EXTT2=
EXTT3=
EXTT4=
EXTT5=
EXTT6=
EXTT7=
EXTT8=
EXTT9=
EXTT10=
EXTT11=
EXTT12=
EXTT13=
EXTT14=
EXTT15=
EXTT16=
EXTT17=
EXTT18=
EXTT19=
EXTT20=
EXTT21=
EXTT22=
EXTT23=
PLAYORDER=
